<mxfile host="Electron" agent="Mozilla/5.0 (Windows NT 10.0; Win64; x64) AppleWebKit/537.36 (KHTML, like Gecko) draw.io/27.0.2 Chrome/134.0.6998.205 Electron/35.3.0 Safari/537.36" version="27.0.2">
  <diagram name="Pagina-1" id="3V2Wv37NrGapZPoAGZ-m">
    <mxGraphModel dx="3213" dy="1422" grid="1" gridSize="10" guides="1" tooltips="1" connect="1" arrows="1" fold="1" page="1" pageScale="1" pageWidth="827" pageHeight="1169" math="0" shadow="0">
      <root>
        <mxCell id="0" />
        <mxCell id="1" parent="0" />
        <mxCell id="IuIFWbdGyh8Tsnzj5HuB-23" value="" style="ellipse;shape=cloud;whiteSpace=wrap;html=1;" vertex="1" parent="1">
          <mxGeometry x="40" y="268" width="730" height="440" as="geometry" />
        </mxCell>
        <mxCell id="IuIFWbdGyh8Tsnzj5HuB-1" value="" style="shape=mxgraph.cisco.switches.workgroup_switch;sketch=0;html=1;pointerEvents=1;dashed=0;fillColor=#036897;strokeColor=#ffffff;strokeWidth=2;verticalLabelPosition=bottom;verticalAlign=top;align=center;outlineConnect=0;" vertex="1" parent="1">
          <mxGeometry x="790" y="730" width="101" height="50" as="geometry" />
        </mxCell>
        <mxCell id="IuIFWbdGyh8Tsnzj5HuB-2" value="" style="shape=mxgraph.cisco.switches.workgroup_switch;sketch=0;html=1;pointerEvents=1;dashed=0;fillColor=#036897;strokeColor=#ffffff;strokeWidth=2;verticalLabelPosition=bottom;verticalAlign=top;align=center;outlineConnect=0;" vertex="1" parent="1">
          <mxGeometry x="375.5" y="806" width="101" height="50" as="geometry" />
        </mxCell>
        <mxCell id="IuIFWbdGyh8Tsnzj5HuB-4" value="" style="shape=mxgraph.cisco.switches.workgroup_switch;sketch=0;html=1;pointerEvents=1;dashed=0;fillColor=#036897;strokeColor=#ffffff;strokeWidth=2;verticalLabelPosition=bottom;verticalAlign=top;align=center;outlineConnect=0;" vertex="1" parent="1">
          <mxGeometry x="-52" y="700" width="101" height="50" as="geometry" />
        </mxCell>
        <mxCell id="IuIFWbdGyh8Tsnzj5HuB-5" value="" style="shape=mxgraph.cisco.computers_and_peripherals.workstation;sketch=0;html=1;pointerEvents=1;dashed=0;fillColor=#036897;strokeColor=#ffffff;strokeWidth=2;verticalLabelPosition=bottom;verticalAlign=top;align=center;outlineConnect=0;" vertex="1" parent="1">
          <mxGeometry x="510" y="944" width="83" height="62" as="geometry" />
        </mxCell>
        <mxCell id="IuIFWbdGyh8Tsnzj5HuB-6" value="" style="shape=mxgraph.cisco.computers_and_peripherals.workstation;sketch=0;html=1;pointerEvents=1;dashed=0;fillColor=#036897;strokeColor=#ffffff;strokeWidth=2;verticalLabelPosition=bottom;verticalAlign=top;align=center;outlineConnect=0;" vertex="1" parent="1">
          <mxGeometry x="1010" y="800" width="83" height="62" as="geometry" />
        </mxCell>
        <mxCell id="IuIFWbdGyh8Tsnzj5HuB-7" value="" style="shape=mxgraph.cisco.computers_and_peripherals.workstation;sketch=0;html=1;pointerEvents=1;dashed=0;fillColor=#036897;strokeColor=#ffffff;strokeWidth=2;verticalLabelPosition=bottom;verticalAlign=top;align=center;outlineConnect=0;" vertex="1" parent="1">
          <mxGeometry x="827" y="930" width="83" height="62" as="geometry" />
        </mxCell>
        <mxCell id="IuIFWbdGyh8Tsnzj5HuB-8" value="" style="shape=mxgraph.cisco.computers_and_peripherals.workstation;sketch=0;html=1;pointerEvents=1;dashed=0;fillColor=#036897;strokeColor=#ffffff;strokeWidth=2;verticalLabelPosition=bottom;verticalAlign=top;align=center;outlineConnect=0;" vertex="1" parent="1">
          <mxGeometry x="-280" y="638" width="83" height="62" as="geometry" />
        </mxCell>
        <mxCell id="IuIFWbdGyh8Tsnzj5HuB-9" value="" style="shape=mxgraph.cisco.computers_and_peripherals.workstation;sketch=0;html=1;pointerEvents=1;dashed=0;fillColor=#036897;strokeColor=#ffffff;strokeWidth=2;verticalLabelPosition=bottom;verticalAlign=top;align=center;outlineConnect=0;" vertex="1" parent="1">
          <mxGeometry x="-120" y="862" width="83" height="62" as="geometry" />
        </mxCell>
        <mxCell id="IuIFWbdGyh8Tsnzj5HuB-10" value="" style="shape=mxgraph.cisco.computers_and_peripherals.workstation;sketch=0;html=1;pointerEvents=1;dashed=0;fillColor=#036897;strokeColor=#ffffff;strokeWidth=2;verticalLabelPosition=bottom;verticalAlign=top;align=center;outlineConnect=0;" vertex="1" parent="1">
          <mxGeometry x="252" y="940" width="80" height="66" as="geometry" />
        </mxCell>
        <mxCell id="IuIFWbdGyh8Tsnzj5HuB-11" value="" style="shape=mxgraph.cisco.servers.file_server;sketch=0;html=1;pointerEvents=1;dashed=0;fillColor=#036897;strokeColor=#ffffff;strokeWidth=2;verticalLabelPosition=bottom;verticalAlign=top;align=center;outlineConnect=0;" vertex="1" parent="1">
          <mxGeometry x="416" y="140" width="43" height="58" as="geometry" />
        </mxCell>
        <mxCell id="IuIFWbdGyh8Tsnzj5HuB-12" value="" style="shape=mxgraph.cisco.servers.file_server;sketch=0;html=1;pointerEvents=1;dashed=0;fillColor=#036897;strokeColor=#ffffff;strokeWidth=2;verticalLabelPosition=bottom;verticalAlign=top;align=center;outlineConnect=0;" vertex="1" parent="1">
          <mxGeometry x="539" y="140" width="43" height="58" as="geometry" />
        </mxCell>
        <mxCell id="IuIFWbdGyh8Tsnzj5HuB-13" value="" style="shape=mxgraph.cisco.servers.file_server;sketch=0;html=1;pointerEvents=1;dashed=0;fillColor=#036897;strokeColor=#ffffff;strokeWidth=2;verticalLabelPosition=bottom;verticalAlign=top;align=center;outlineConnect=0;" vertex="1" parent="1">
          <mxGeometry x="659" y="140" width="43" height="58" as="geometry" />
        </mxCell>
        <mxCell id="IuIFWbdGyh8Tsnzj5HuB-14" value="" style="shape=mxgraph.cisco.servers.file_server;sketch=0;html=1;pointerEvents=1;dashed=0;fillColor=#036897;strokeColor=#ffffff;strokeWidth=2;verticalLabelPosition=bottom;verticalAlign=top;align=center;outlineConnect=0;" vertex="1" parent="1">
          <mxGeometry x="159" y="140" width="43" height="58" as="geometry" />
        </mxCell>
        <mxCell id="IuIFWbdGyh8Tsnzj5HuB-15" value="" style="shape=mxgraph.cisco.servers.file_server;sketch=0;html=1;pointerEvents=1;dashed=0;fillColor=#036897;strokeColor=#ffffff;strokeWidth=2;verticalLabelPosition=bottom;verticalAlign=top;align=center;outlineConnect=0;" vertex="1" parent="1">
          <mxGeometry x="289" y="140" width="43" height="58" as="geometry" />
        </mxCell>
        <mxCell id="IuIFWbdGyh8Tsnzj5HuB-16" value="" style="shape=mxgraph.cisco.switches.workgroup_switch;sketch=0;html=1;pointerEvents=1;dashed=0;fillColor=#036897;strokeColor=#ffffff;strokeWidth=2;verticalLabelPosition=bottom;verticalAlign=top;align=center;outlineConnect=0;" vertex="1" parent="1">
          <mxGeometry x="529.5" y="570" width="80.5" height="40" as="geometry" />
        </mxCell>
        <mxCell id="IuIFWbdGyh8Tsnzj5HuB-17" value="" style="shape=mxgraph.cisco.switches.workgroup_switch;sketch=0;html=1;pointerEvents=1;dashed=0;fillColor=#036897;strokeColor=#ffffff;strokeWidth=2;verticalLabelPosition=bottom;verticalAlign=top;align=center;outlineConnect=0;" vertex="1" parent="1">
          <mxGeometry x="189" y="550" width="88" height="40" as="geometry" />
        </mxCell>
        <mxCell id="IuIFWbdGyh8Tsnzj5HuB-18" value="" style="shape=mxgraph.cisco.routers.router;sketch=0;html=1;pointerEvents=1;dashed=0;fillColor=#036897;strokeColor=#ffffff;strokeWidth=2;verticalLabelPosition=bottom;verticalAlign=top;align=center;outlineConnect=0;" vertex="1" parent="1">
          <mxGeometry x="387" y="480" width="78" height="53" as="geometry" />
        </mxCell>
        <mxCell id="IuIFWbdGyh8Tsnzj5HuB-19" value="" style="shape=mxgraph.cisco.routers.router;sketch=0;html=1;pointerEvents=1;dashed=0;fillColor=#036897;strokeColor=#ffffff;strokeWidth=2;verticalLabelPosition=bottom;verticalAlign=top;align=center;outlineConnect=0;" vertex="1" parent="1">
          <mxGeometry x="277" y="357.5" width="78" height="53" as="geometry" />
        </mxCell>
        <mxCell id="IuIFWbdGyh8Tsnzj5HuB-25" value="" style="endArrow=none;html=1;rounded=0;" edge="1" parent="1" source="IuIFWbdGyh8Tsnzj5HuB-2" target="IuIFWbdGyh8Tsnzj5HuB-5">
          <mxGeometry width="50" height="50" relative="1" as="geometry">
            <mxPoint x="420" y="520" as="sourcePoint" />
            <mxPoint x="470" y="470" as="targetPoint" />
          </mxGeometry>
        </mxCell>
        <mxCell id="IuIFWbdGyh8Tsnzj5HuB-26" value="" style="endArrow=none;html=1;rounded=0;" edge="1" parent="1" source="IuIFWbdGyh8Tsnzj5HuB-10" target="IuIFWbdGyh8Tsnzj5HuB-2">
          <mxGeometry width="50" height="50" relative="1" as="geometry">
            <mxPoint x="340" y="890" as="sourcePoint" />
            <mxPoint x="390" y="840" as="targetPoint" />
          </mxGeometry>
        </mxCell>
        <mxCell id="IuIFWbdGyh8Tsnzj5HuB-27" value="" style="endArrow=none;html=1;rounded=0;" edge="1" parent="1" source="IuIFWbdGyh8Tsnzj5HuB-8" target="IuIFWbdGyh8Tsnzj5HuB-4">
          <mxGeometry width="50" height="50" relative="1" as="geometry">
            <mxPoint x="10" y="960" as="sourcePoint" />
            <mxPoint x="60" y="910" as="targetPoint" />
          </mxGeometry>
        </mxCell>
        <mxCell id="IuIFWbdGyh8Tsnzj5HuB-28" value="" style="endArrow=none;html=1;rounded=0;" edge="1" parent="1" source="IuIFWbdGyh8Tsnzj5HuB-9" target="IuIFWbdGyh8Tsnzj5HuB-4">
          <mxGeometry width="50" height="50" relative="1" as="geometry">
            <mxPoint x="-110" y="800" as="sourcePoint" />
            <mxPoint x="-60" y="750" as="targetPoint" />
          </mxGeometry>
        </mxCell>
        <mxCell id="IuIFWbdGyh8Tsnzj5HuB-29" value="" style="endArrow=none;html=1;rounded=0;entryX=0.5;entryY=0.98;entryDx=0;entryDy=0;entryPerimeter=0;" edge="1" parent="1" source="IuIFWbdGyh8Tsnzj5HuB-7" target="IuIFWbdGyh8Tsnzj5HuB-1">
          <mxGeometry width="50" height="50" relative="1" as="geometry">
            <mxPoint x="640" y="1000" as="sourcePoint" />
            <mxPoint x="690" y="950" as="targetPoint" />
          </mxGeometry>
        </mxCell>
        <mxCell id="IuIFWbdGyh8Tsnzj5HuB-30" value="" style="endArrow=none;html=1;rounded=0;" edge="1" parent="1" source="IuIFWbdGyh8Tsnzj5HuB-6" target="IuIFWbdGyh8Tsnzj5HuB-1">
          <mxGeometry width="50" height="50" relative="1" as="geometry">
            <mxPoint x="420" y="520" as="sourcePoint" />
            <mxPoint x="470" y="470" as="targetPoint" />
          </mxGeometry>
        </mxCell>
        <mxCell id="IuIFWbdGyh8Tsnzj5HuB-31" value="" style="endArrow=none;dashed=1;html=1;dashPattern=1 3;strokeWidth=2;rounded=0;entryX=0.183;entryY=0.807;entryDx=0;entryDy=0;entryPerimeter=0;" edge="1" parent="1" source="IuIFWbdGyh8Tsnzj5HuB-4" target="IuIFWbdGyh8Tsnzj5HuB-23">
          <mxGeometry width="50" height="50" relative="1" as="geometry">
            <mxPoint x="110" y="750" as="sourcePoint" />
            <mxPoint x="160" y="700" as="targetPoint" />
          </mxGeometry>
        </mxCell>
        <mxCell id="IuIFWbdGyh8Tsnzj5HuB-32" value="" style="endArrow=none;dashed=1;html=1;rounded=0;entryX=0.8;entryY=0.8;entryDx=0;entryDy=0;entryPerimeter=0;" edge="1" parent="1" source="IuIFWbdGyh8Tsnzj5HuB-1" target="IuIFWbdGyh8Tsnzj5HuB-23">
          <mxGeometry width="50" height="50" relative="1" as="geometry">
            <mxPoint x="770" y="740" as="sourcePoint" />
            <mxPoint x="820" y="690" as="targetPoint" />
          </mxGeometry>
        </mxCell>
        <mxCell id="IuIFWbdGyh8Tsnzj5HuB-33" value="" style="endArrow=none;dashed=1;html=1;dashPattern=1 3;strokeWidth=2;rounded=0;exitX=0.5;exitY=0;exitDx=0;exitDy=0;exitPerimeter=0;" edge="1" parent="1" source="IuIFWbdGyh8Tsnzj5HuB-2">
          <mxGeometry width="50" height="50" relative="1" as="geometry">
            <mxPoint x="420" y="520" as="sourcePoint" />
            <mxPoint x="430" y="680" as="targetPoint" />
          </mxGeometry>
        </mxCell>
        <mxCell id="IuIFWbdGyh8Tsnzj5HuB-35" value="" style="shape=mxgraph.cisco.switches.layer_3_switch;sketch=0;html=1;pointerEvents=1;dashed=0;fillColor=#036897;strokeColor=#ffffff;strokeWidth=2;verticalLabelPosition=bottom;verticalAlign=top;align=center;outlineConnect=0;" vertex="1" parent="1">
          <mxGeometry x="510" y="370" width="64" height="64" as="geometry" />
        </mxCell>
        <mxCell id="IuIFWbdGyh8Tsnzj5HuB-36" value="FA0&lt;div&gt;&lt;br&gt;&lt;/div&gt;" style="text;html=1;align=center;verticalAlign=middle;resizable=0;points=[];autosize=1;strokeColor=none;fillColor=none;" vertex="1" parent="1">
          <mxGeometry x="292" y="904" width="40" height="40" as="geometry" />
        </mxCell>
        <mxCell id="IuIFWbdGyh8Tsnzj5HuB-37" value="FA0/3" style="text;html=1;align=center;verticalAlign=middle;resizable=0;points=[];autosize=1;strokeColor=none;fillColor=none;" vertex="1" parent="1">
          <mxGeometry x="332" y="856" width="50" height="30" as="geometry" />
        </mxCell>
        <mxCell id="IuIFWbdGyh8Tsnzj5HuB-38" value="FA0" style="text;html=1;align=center;verticalAlign=middle;resizable=0;points=[];autosize=1;strokeColor=none;fillColor=none;" vertex="1" parent="1">
          <mxGeometry x="510" y="918" width="40" height="30" as="geometry" />
        </mxCell>
        <mxCell id="IuIFWbdGyh8Tsnzj5HuB-39" value="FA0/7" style="text;html=1;align=center;verticalAlign=middle;resizable=0;points=[];autosize=1;strokeColor=none;fillColor=none;" vertex="1" parent="1">
          <mxGeometry x="455" y="848" width="50" height="30" as="geometry" />
        </mxCell>
        <mxCell id="IuIFWbdGyh8Tsnzj5HuB-40" value="Gig0/2" style="text;html=1;align=center;verticalAlign=middle;resizable=0;points=[];autosize=1;strokeColor=none;fillColor=none;" vertex="1" parent="1">
          <mxGeometry x="420" y="758" width="60" height="30" as="geometry" />
        </mxCell>
        <mxCell id="IuIFWbdGyh8Tsnzj5HuB-41" value="Gig1/1" style="text;html=1;align=center;verticalAlign=middle;resizable=0;points=[];autosize=1;strokeColor=none;fillColor=none;" vertex="1" parent="1">
          <mxGeometry x="430" y="688" width="60" height="30" as="geometry" />
        </mxCell>
        <mxCell id="IuIFWbdGyh8Tsnzj5HuB-42" value="Gig0/1" style="text;html=1;align=center;verticalAlign=middle;resizable=0;points=[];autosize=1;strokeColor=none;fillColor=none;" vertex="1" parent="1">
          <mxGeometry x="40" y="698" width="60" height="30" as="geometry" />
        </mxCell>
        <mxCell id="IuIFWbdGyh8Tsnzj5HuB-43" value="Gig2/1" style="text;html=1;align=center;verticalAlign=middle;resizable=0;points=[];autosize=1;strokeColor=none;fillColor=none;" vertex="1" parent="1">
          <mxGeometry x="150" y="628" width="60" height="30" as="geometry" />
        </mxCell>
        <mxCell id="IuIFWbdGyh8Tsnzj5HuB-44" value="Gig0/1" style="text;html=1;align=center;verticalAlign=middle;resizable=0;points=[];autosize=1;strokeColor=none;fillColor=none;" vertex="1" parent="1">
          <mxGeometry x="610" y="638" width="60" height="30" as="geometry" />
        </mxCell>
        <mxCell id="IuIFWbdGyh8Tsnzj5HuB-45" value="Gig0/3" style="text;html=1;align=center;verticalAlign=middle;resizable=0;points=[];autosize=1;strokeColor=none;fillColor=none;" vertex="1" parent="1">
          <mxGeometry x="740" y="718" width="60" height="30" as="geometry" />
        </mxCell>
        <mxCell id="IuIFWbdGyh8Tsnzj5HuB-46" value="FA0" style="text;html=1;align=center;verticalAlign=middle;resizable=0;points=[];autosize=1;strokeColor=none;fillColor=none;" vertex="1" parent="1">
          <mxGeometry x="820.5" y="900" width="40" height="30" as="geometry" />
        </mxCell>
        <mxCell id="IuIFWbdGyh8Tsnzj5HuB-47" value="FA0/1" style="text;html=1;align=center;verticalAlign=middle;resizable=0;points=[];autosize=1;strokeColor=none;fillColor=none;" vertex="1" parent="1">
          <mxGeometry x="800" y="780" width="50" height="30" as="geometry" />
        </mxCell>
        <mxCell id="IuIFWbdGyh8Tsnzj5HuB-48" value="FA0/17" style="text;html=1;align=center;verticalAlign=middle;resizable=0;points=[];autosize=1;strokeColor=none;fillColor=none;" vertex="1" parent="1">
          <mxGeometry x="890" y="740" width="60" height="30" as="geometry" />
        </mxCell>
        <mxCell id="IuIFWbdGyh8Tsnzj5HuB-49" value="FA0" style="text;html=1;align=center;verticalAlign=middle;resizable=0;points=[];autosize=1;strokeColor=none;fillColor=none;" vertex="1" parent="1">
          <mxGeometry x="980" y="778" width="40" height="30" as="geometry" />
        </mxCell>
        <mxCell id="IuIFWbdGyh8Tsnzj5HuB-50" value="FA0" style="text;html=1;align=center;verticalAlign=middle;resizable=0;points=[];autosize=1;strokeColor=none;fillColor=none;" vertex="1" parent="1">
          <mxGeometry x="-50" y="848" width="40" height="30" as="geometry" />
        </mxCell>
        <mxCell id="IuIFWbdGyh8Tsnzj5HuB-51" value="FA0/14" style="text;html=1;align=center;verticalAlign=middle;resizable=0;points=[];autosize=1;strokeColor=none;fillColor=none;" vertex="1" parent="1">
          <mxGeometry x="-20" y="758" width="60" height="30" as="geometry" />
        </mxCell>
        <mxCell id="IuIFWbdGyh8Tsnzj5HuB-52" value="FA0" style="text;html=1;align=center;verticalAlign=middle;resizable=0;points=[];autosize=1;strokeColor=none;fillColor=none;" vertex="1" parent="1">
          <mxGeometry x="-200" y="688" width="40" height="30" as="geometry" />
        </mxCell>
        <mxCell id="IuIFWbdGyh8Tsnzj5HuB-53" value="FA0/4" style="text;html=1;align=center;verticalAlign=middle;resizable=0;points=[];autosize=1;strokeColor=none;fillColor=none;" vertex="1" parent="1">
          <mxGeometry x="-105" y="708" width="50" height="30" as="geometry" />
        </mxCell>
        <mxCell id="IuIFWbdGyh8Tsnzj5HuB-54" value="" style="endArrow=none;html=1;rounded=0;exitX=0.232;exitY=0.252;exitDx=0;exitDy=0;exitPerimeter=0;" edge="1" parent="1" source="IuIFWbdGyh8Tsnzj5HuB-23" target="IuIFWbdGyh8Tsnzj5HuB-14">
          <mxGeometry width="50" height="50" relative="1" as="geometry">
            <mxPoint x="180" y="290" as="sourcePoint" />
            <mxPoint x="230" y="240" as="targetPoint" />
          </mxGeometry>
        </mxCell>
        <mxCell id="IuIFWbdGyh8Tsnzj5HuB-55" value="" style="endArrow=none;html=1;rounded=0;exitX=0.371;exitY=0.094;exitDx=0;exitDy=0;exitPerimeter=0;" edge="1" parent="1" source="IuIFWbdGyh8Tsnzj5HuB-23" target="IuIFWbdGyh8Tsnzj5HuB-15">
          <mxGeometry width="50" height="50" relative="1" as="geometry">
            <mxPoint x="300" y="280" as="sourcePoint" />
            <mxPoint x="350" y="230" as="targetPoint" />
          </mxGeometry>
        </mxCell>
        <mxCell id="IuIFWbdGyh8Tsnzj5HuB-56" value="" style="endArrow=none;html=1;rounded=0;exitX=0.529;exitY=0.124;exitDx=0;exitDy=0;exitPerimeter=0;" edge="1" parent="1" source="IuIFWbdGyh8Tsnzj5HuB-23" target="IuIFWbdGyh8Tsnzj5HuB-11">
          <mxGeometry width="50" height="50" relative="1" as="geometry">
            <mxPoint x="430" y="290" as="sourcePoint" />
            <mxPoint x="480" y="240" as="targetPoint" />
          </mxGeometry>
        </mxCell>
        <mxCell id="IuIFWbdGyh8Tsnzj5HuB-57" value="" style="endArrow=none;html=1;rounded=0;exitX=0.696;exitY=0.177;exitDx=0;exitDy=0;exitPerimeter=0;" edge="1" parent="1" source="IuIFWbdGyh8Tsnzj5HuB-23" target="IuIFWbdGyh8Tsnzj5HuB-12">
          <mxGeometry width="50" height="50" relative="1" as="geometry">
            <mxPoint x="510" y="300" as="sourcePoint" />
            <mxPoint x="560" y="250" as="targetPoint" />
          </mxGeometry>
        </mxCell>
        <mxCell id="IuIFWbdGyh8Tsnzj5HuB-59" value="" style="endArrow=none;html=1;rounded=0;exitX=0.785;exitY=0.185;exitDx=0;exitDy=0;exitPerimeter=0;" edge="1" parent="1" source="IuIFWbdGyh8Tsnzj5HuB-23" target="IuIFWbdGyh8Tsnzj5HuB-13">
          <mxGeometry width="50" height="50" relative="1" as="geometry">
            <mxPoint x="660" y="290" as="sourcePoint" />
            <mxPoint x="710" y="240" as="targetPoint" />
          </mxGeometry>
        </mxCell>
        <mxCell id="IuIFWbdGyh8Tsnzj5HuB-60" value="" style="endArrow=none;html=1;rounded=0;" edge="1" parent="1" source="IuIFWbdGyh8Tsnzj5HuB-35" target="IuIFWbdGyh8Tsnzj5HuB-18">
          <mxGeometry width="50" height="50" relative="1" as="geometry">
            <mxPoint x="260" y="520" as="sourcePoint" />
            <mxPoint x="310" y="470" as="targetPoint" />
          </mxGeometry>
        </mxCell>
        <mxCell id="IuIFWbdGyh8Tsnzj5HuB-61" value="Gig1/0/1" style="text;html=1;align=center;verticalAlign=middle;resizable=0;points=[];autosize=1;strokeColor=none;fillColor=none;" vertex="1" parent="1">
          <mxGeometry x="445" y="410" width="70" height="30" as="geometry" />
        </mxCell>
        <mxCell id="IuIFWbdGyh8Tsnzj5HuB-62" value="Gig0/0/0" style="text;html=1;align=center;verticalAlign=middle;resizable=0;points=[];autosize=1;strokeColor=none;fillColor=none;" vertex="1" parent="1">
          <mxGeometry x="400" y="450" width="70" height="30" as="geometry" />
        </mxCell>
        <mxCell id="IuIFWbdGyh8Tsnzj5HuB-63" value="Main_L3" style="text;html=1;align=center;verticalAlign=middle;resizable=0;points=[];autosize=1;strokeColor=none;fillColor=none;" vertex="1" parent="1">
          <mxGeometry x="510" y="440" width="70" height="30" as="geometry" />
        </mxCell>
        <mxCell id="IuIFWbdGyh8Tsnzj5HuB-64" value="Edge" style="text;html=1;align=center;verticalAlign=middle;resizable=0;points=[];autosize=1;strokeColor=none;fillColor=none;" vertex="1" parent="1">
          <mxGeometry x="400" y="533" width="50" height="30" as="geometry" />
        </mxCell>
        <mxCell id="IuIFWbdGyh8Tsnzj5HuB-65" value="SW_Back01" style="text;html=1;align=center;verticalAlign=middle;resizable=0;points=[];autosize=1;strokeColor=none;fillColor=none;" vertex="1" parent="1">
          <mxGeometry x="524.75" y="610" width="90" height="30" as="geometry" />
        </mxCell>
        <mxCell id="IuIFWbdGyh8Tsnzj5HuB-66" value="FIREWALL" style="text;html=1;align=center;verticalAlign=middle;resizable=0;points=[];autosize=1;strokeColor=none;fillColor=none;" vertex="1" parent="1">
          <mxGeometry x="570" y="748" width="80" height="30" as="geometry" />
        </mxCell>
        <mxCell id="IuIFWbdGyh8Tsnzj5HuB-67" value="SW_Core" style="text;html=1;align=center;verticalAlign=middle;resizable=0;points=[];autosize=1;strokeColor=none;fillColor=none;" vertex="1" parent="1">
          <mxGeometry x="170" y="440" width="80" height="30" as="geometry" />
        </mxCell>
      </root>
    </mxGraphModel>
  </diagram>
</mxfile>
